<svg xmlns="http://www.w3.org/2000/svg" viewBox="0 0 800 220">
  <defs>
    <pattern id="dotsDev" width="20" height="20" patternUnits="userSpaceOnUse">
      <circle cx="10" cy="10" r="0.7" fill="white" opacity="0.05"/>
    </pattern>
    <linearGradient id="bgDev" x1="0" y1="0" x2="1" y2="1">
      <stop offset="0%" stop-color="#04090f"/>
      <stop offset="100%" stop-color="#081428"/>
    </linearGradient>
  </defs>
  <rect width="800" height="220" fill="url(#bgDev)"/>
  <rect width="800" height="220" fill="url(#dotsDev)"/>

  <!-- Glows -->
  <ellipse cx="200" cy="110" rx="150" ry="80" fill="#3b82f6" opacity="0.04"/>
  <ellipse cx="550" cy="110" rx="150" ry="80" fill="#3b82f6" opacity="0.03"/>

  <!-- Kanban board frame -->
  <rect x="30" y="42" width="700" height="148" rx="8" fill="#000000" opacity="0.2" stroke="#3b82f6" stroke-width="0.8" stroke-opacity="0.2"/>

  <!-- Column: TODO -->
  <rect x="46" y="52" width="200" height="128" rx="6" fill="#3b82f6" opacity="0.05" stroke="#3b82f6" stroke-width="0.8" stroke-opacity="0.3"/>
  <text x="146" y="68" font-family="monospace" font-size="9" fill="#60a5fa" text-anchor="middle" font-weight="600" opacity="0.8">TODO</text>
  <rect x="186" y="57" width="20" height="14" rx="7" fill="#3b82f6" opacity="0.3"/>
  <text x="196" y="67" font-family="monospace" font-size="7" fill="#93c5fd" text-anchor="middle">3</text>
  <!-- Cards -->
  <rect x="56" y="76" width="180" height="28" rx="4" fill="#3b82f6" opacity="0.1" stroke="#3b82f6" stroke-width="0.6" stroke-opacity="0.4"/>
  <text x="72" y="87" font-family="monospace" font-size="7.5" fill="#93c5fd" opacity="0.8">Add OAuth login</text>
  <text x="72" y="98" font-family="monospace" font-size="6" fill="#ffffff" opacity="0.3">feature · high priority</text>
  <rect x="56" y="112" width="180" height="28" rx="4" fill="#3b82f6" opacity="0.08" stroke="#3b82f6" stroke-width="0.6" stroke-opacity="0.3"/>
  <text x="72" y="123" font-family="monospace" font-size="7.5" fill="#93c5fd" opacity="0.7">Write unit tests</text>
  <text x="72" y="134" font-family="monospace" font-size="6" fill="#ffffff" opacity="0.3">chore · medium</text>
  <rect x="56" y="148" width="180" height="24" rx="4" fill="#3b82f6" opacity="0.06" stroke="#3b82f6" stroke-width="0.6" stroke-opacity="0.2"/>
  <text x="72" y="163" font-family="monospace" font-size="7.5" fill="#93c5fd" opacity="0.5">Update README</text>

  <!-- Column: IN PROGRESS -->
  <rect x="262" y="52" width="210" height="128" rx="6" fill="#f59e0b" opacity="0.04" stroke="#f59e0b" stroke-width="0.8" stroke-opacity="0.3"/>
  <text x="345" y="68" font-family="monospace" font-size="9" fill="#fbbf24" text-anchor="middle" font-weight="600" opacity="0.8">IN PROGRESS</text>
  <rect x="390" y="57" width="20" height="14" rx="7" fill="#f59e0b" opacity="0.3"/>
  <text x="400" y="67" font-family="monospace" font-size="7" fill="#fde68a" text-anchor="middle">2</text>
  <!-- Cards -->
  <rect x="272" y="76" width="190" height="32" rx="4" fill="#f59e0b" opacity="0.1" stroke="#f59e0b" stroke-width="0.8" stroke-opacity="0.5"/>
  <text x="288" y="88" font-family="monospace" font-size="7.5" fill="#fbbf24" opacity="0.9">Fix pagination bug</text>
  <text x="288" y="99" font-family="monospace" font-size="6" fill="#ffffff" opacity="0.35">bug · @mithil · due Jun 15</text>
  <!-- Progress bar -->
  <rect x="288" y="104" width="160" height="3" rx="1.5" fill="#ffffff" opacity="0.1"/>
  <rect x="288" y="104" width="96" height="3" rx="1.5" fill="#f59e0b" opacity="0.6"/>
  <rect x="272" y="118" width="190" height="28" rx="4" fill="#f59e0b" opacity="0.07" stroke="#f59e0b" stroke-width="0.6" stroke-opacity="0.3"/>
  <text x="288" y="130" font-family="monospace" font-size="7.5" fill="#fbbf24" opacity="0.7">Dashboard charts</text>
  <text x="288" y="141" font-family="monospace" font-size="6" fill="#ffffff" opacity="0.3">feature · @dev</text>

  <!-- Column: DONE -->
  <rect x="488" y="52" width="200" height="128" rx="6" fill="#10b981" opacity="0.04" stroke="#10b981" stroke-width="0.8" stroke-opacity="0.3"/>
  <text x="588" y="68" font-family="monospace" font-size="9" fill="#34d399" text-anchor="middle" font-weight="600" opacity="0.8">DONE</text>
  <rect x="628" y="57" width="20" height="14" rx="7" fill="#10b981" opacity="0.3"/>
  <text x="638" y="67" font-family="monospace" font-size="7" fill="#6ee7b7" text-anchor="middle">4</text>
  <!-- Cards with checkmarks -->
  <rect x="498" y="76" width="180" height="26" rx="4" fill="#10b981" opacity="0.08" stroke="#10b981" stroke-width="0.6" stroke-opacity="0.3"/>
  <text x="514" y="87" font-family="monospace" font-size="7.5" fill="#34d399" opacity="0.7">✓ User auth JWT</text>
  <text x="514" y="96" font-family="monospace" font-size="6" fill="#ffffff" opacity="0.25">closed · merged</text>
  <rect x="498" y="110" width="180" height="26" rx="4" fill="#10b981" opacity="0.06" stroke="#10b981" stroke-width="0.6" stroke-opacity="0.2"/>
  <text x="514" y="121" font-family="monospace" font-size="7.5" fill="#34d399" opacity="0.6">✓ Project CRUD API</text>
  <text x="514" y="130" font-family="monospace" font-size="6" fill="#ffffff" opacity="0.2">closed · merged</text>
  <rect x="498" y="144" width="180" height="24" rx="4" fill="#10b981" opacity="0.04" stroke="#10b981" stroke-width="0.5" stroke-opacity="0.15"/>
  <text x="514" y="159" font-family="monospace" font-size="7.5" fill="#34d399" opacity="0.5">✓ Docker setup</text>

  <!-- Top label -->
  <text x="32" y="28" font-family="sans-serif" font-size="10" fill="#3b82f6" opacity="0.7" font-weight="600" letter-spacing="2">PRODUCTIVITY · ISSUE TRACKER · REACT + SPRING BOOT</text>
</svg>
